<svg width="31" height="30" viewBox="0 0 31 30" fill="none" xmlns="http://www.w3.org/2000/svg">
<path d="M29.3 0H1.7C1.03625 0 0.5 0.53625 0.5 1.2V28.8C0.5 29.4638 1.03625 30 1.7 30H29.3C29.9638 30 30.5 29.4638 30.5 28.8V1.2C30.5 0.53625 29.9638 0 29.3 0ZM18.7438 8.95875H23.9338V10.2225H18.7438V8.95875ZM15.5 19.38C15.2572 19.8408 14.9106 20.2388 14.4875 20.5425C14.045 20.85 13.5538 21.075 13.0325 21.2063C12.4872 21.3524 11.9246 21.4243 11.36 21.42H5.15V8.62875H11.1875C11.7987 8.62875 12.3538 8.685 12.86 8.79C13.3625 8.895 13.79 9.075 14.15 9.31875C14.5063 9.5625 14.7875 9.88875 14.9862 10.2938C15.1812 10.695 15.2825 11.1975 15.2825 11.7938C15.2825 12.4388 15.1363 12.9713 14.8438 13.4025C14.5475 13.8338 14.12 14.1825 13.5388 14.4563C14.33 14.6813 14.9113 15.0825 15.2938 15.645C15.6838 16.215 15.875 16.8975 15.875 17.7C15.875 18.3525 15.7513 18.9113 15.5 19.38ZM25.955 17.4H19.265C19.265 18.1275 19.5163 18.825 19.895 19.2C20.2775 19.5713 20.825 19.7588 21.5413 19.7588C22.0588 19.7588 22.4975 19.6275 22.8725 19.3688C23.2437 19.11 23.4688 18.8363 23.5513 18.5513H25.7938C25.4338 19.665 24.8863 20.46 24.1438 20.94C23.4088 21.42 22.5088 21.66 21.4625 21.66C20.7313 21.66 20.075 21.54 19.4862 21.3113C18.92 21.09 18.41 20.7525 17.99 20.3175C17.5759 19.8708 17.2558 19.3454 17.0487 18.7725C16.82 18.1387 16.7075 17.4713 16.715 16.8C16.715 16.1063 16.8313 15.4612 17.0563 14.8612C17.4875 13.695 18.3838 12.7613 19.5275 12.2775C20.1388 12.0225 20.795 11.895 21.4588 11.9025C22.2463 11.9025 22.9288 12.0525 23.5213 12.36C24.0917 12.6536 24.5869 13.0745 24.9688 13.59C25.3475 14.1038 25.6138 14.6888 25.7825 15.3488C25.9438 15.9975 26 16.68 25.955 17.4ZM21.38 13.815C20.975 13.815 20.6338 13.8863 20.3713 14.025C20.1088 14.1638 19.8913 14.3363 19.7263 14.535C19.5691 14.7269 19.453 14.949 19.385 15.1875C19.325 15.3863 19.2838 15.5888 19.2688 15.795H23.4125C23.3525 15.1463 23.1275 14.6663 22.8275 14.3288C22.5125 13.995 22.0063 13.815 21.38 13.815ZM12.0612 13.4362C12.3875 13.2 12.545 12.81 12.545 12.2738C12.5563 12.0188 12.5038 11.7675 12.3913 11.5388C12.29 11.355 12.14 11.2012 11.9563 11.0925C11.7657 10.977 11.5541 10.9005 11.3337 10.8675C11.0937 10.8225 10.85 10.8 10.61 10.8038H7.97375V13.7925H10.8275C11.3188 13.7963 11.735 13.6762 12.0612 13.4362ZM12.5038 16.1362C12.1363 15.855 11.645 15.7162 11.0338 15.7162H7.96625V19.2412H10.9738C11.255 19.2412 11.5138 19.215 11.765 19.1625C12.0163 19.11 12.2413 19.02 12.4325 18.8925C12.6238 18.7687 12.7775 18.6 12.8938 18.3825C13.0063 18.165 13.0625 17.8875 13.0625 17.5537C13.0625 16.89 12.875 16.4212 12.5038 16.1362Z" fill="white"/>
</svg>
