<svg width="31" height="30" viewBox="0 0 31 30" fill="none" xmlns="http://www.w3.org/2000/svg">
<path fill-rule="evenodd" clip-rule="evenodd" d="M0.5 2.50637C0.5 1.84164 0.764063 1.20413 1.2341 0.7341C1.70413 0.264066 2.34163 3.34134e-06 3.00636 3.34134e-06H27.9909C28.3203 -0.000534684 28.6466 0.0639073 28.9511 0.18964C29.2556 0.315372 29.5323 0.499926 29.7653 0.732734C29.9984 0.965543 30.1833 1.24204 30.3093 1.54638C30.4354 1.85073 30.5002 2.17695 30.5 2.50637V27.4909C30.5004 27.8204 30.4357 28.1467 30.3099 28.4512C30.184 28.7557 29.9993 29.0324 29.7664 29.2654C29.5335 29.4985 29.2569 29.6833 28.9525 29.8093C28.648 29.9354 28.3218 30.0002 27.9923 30H3.00636C2.67711 30 2.35108 29.9351 2.0469 29.8091C1.74273 29.683 1.46637 29.4983 1.23361 29.2654C1.00086 29.0325 0.816271 28.7561 0.690394 28.4518C0.564518 28.1476 0.499821 27.8215 0.5 27.4923V2.50637ZM12.3745 11.4382H16.4368V13.4782C17.0232 12.3055 18.5232 11.25 20.7773 11.25C25.0986 11.25 26.1227 13.5859 26.1227 17.8718V25.8109H21.7495V18.8482C21.7495 16.4073 21.1632 15.03 19.6741 15.03C17.6082 15.03 16.7491 16.515 16.7491 18.8482V25.8109H12.3745V11.4382ZM4.87455 25.6241H9.24909V11.25H4.87455V25.6227V25.6241ZM9.875 6.56182C9.88325 6.93637 9.8166 7.3088 9.67896 7.65725C9.54133 8.0057 9.33548 8.32314 9.0735 8.59096C8.81152 8.85877 8.49868 9.07156 8.15335 9.21683C7.80802 9.3621 7.43714 9.43694 7.0625 9.43694C6.68786 9.43694 6.31698 9.3621 5.97165 9.21683C5.62632 9.07156 5.31348 8.85877 5.0515 8.59096C4.78952 8.32314 4.58367 8.0057 4.44604 7.65725C4.3084 7.3088 4.24175 6.93637 4.25 6.56182C4.26619 5.82662 4.56962 5.12699 5.0953 4.61276C5.62098 4.09852 6.32712 3.81057 7.0625 3.81057C7.79788 3.81057 8.50402 4.09852 9.0297 4.61276C9.55538 5.12699 9.85881 5.82662 9.875 6.56182V6.56182Z" fill="white"/>
</svg>
