<svg width="31" height="30" viewBox="0 0 31 30" fill="none" xmlns="http://www.w3.org/2000/svg">
<path fill-rule="evenodd" clip-rule="evenodd" d="M15.5 0C7.2125 0 0.5 6.7125 0.5 15C0.5 21.6375 4.79375 27.2438 10.7562 29.2313C11.5062 29.3625 11.7875 28.9125 11.7875 28.5188C11.7875 28.1625 11.7688 26.9812 11.7688 25.725C8 26.4187 7.025 24.8063 6.725 23.9625C6.55625 23.5313 5.825 22.2 5.1875 21.8438C4.6625 21.5625 3.9125 20.8688 5.16875 20.85C6.35 20.8313 7.19375 21.9375 7.475 22.3875C8.825 24.6562 10.9812 24.0187 11.8437 23.625C11.975 22.65 12.3688 21.9938 12.8 21.6188C9.4625 21.2438 5.975 19.95 5.975 14.2125C5.975 12.5812 6.55625 11.2313 7.5125 10.1813C7.3625 9.80625 6.8375 8.26875 7.6625 6.20625C7.6625 6.20625 8.91875 5.8125 11.7875 7.74375C12.9875 7.40625 14.2625 7.2375 15.5375 7.2375C16.8125 7.2375 18.0875 7.40625 19.2875 7.74375C22.1562 5.79375 23.4125 6.20625 23.4125 6.20625C24.2375 8.26875 23.7125 9.80625 23.5625 10.1813C24.5188 11.2313 25.1 12.5625 25.1 14.2125C25.1 19.9687 21.5938 21.2438 18.2562 21.6188C18.8 22.0875 19.2688 22.9875 19.2688 24.3937C19.2688 26.4 19.25 28.0125 19.25 28.5188C19.25 28.9125 19.5312 29.3813 20.2812 29.2313C23.259 28.2259 25.8465 26.3121 27.6796 23.7592C29.5127 21.2063 30.4991 18.1429 30.5 15C30.5 6.7125 23.7875 0 15.5 0Z" fill="white"/>
</svg>
