<svg width="15" height="13" viewBox="0 0 15 13" fill="none" xmlns="http://www.w3.org/2000/svg">
<path d="M3.5 9.49411L3.757 9.0651L3.638 8.9951H3.5V9.4951V9.49411ZM3.5 3.49811V3.99811H3.638L3.758 3.9271L3.5 3.49811ZM8.5 0.500105H9C9.00002 0.411639 8.97657 0.324752 8.93203 0.248312C8.8875 0.171871 8.82349 0.108614 8.74652 0.0649971C8.66956 0.0213798 8.58239 -0.00103624 8.49394 3.67908e-05C8.40548 0.00110982 8.31889 0.0256335 8.243 0.0711049L8.5 0.500105V0.500105ZM8.5 12.4921L8.243 12.9211C8.31889 12.9666 8.40548 12.9911 8.49394 12.9922C8.58239 12.9932 8.66956 12.9708 8.74652 12.9272C8.82349 12.8836 8.8875 12.8203 8.93203 12.7439C8.97657 12.6675 9.00002 12.5806 9 12.4921H8.5ZM13.853 3.1441L13.5 2.7911L12.793 3.49811L13.147 3.85211L13.853 3.1441V3.1441ZM13.147 9.14011L12.793 9.49411L13.5 10.2011L13.853 9.8481L13.147 9.14011V9.14011ZM3.5 8.99411H1.5V9.99411H3.5V8.99411ZM1.5 8.99411C1.36739 8.99411 1.24021 8.94143 1.14645 8.84766C1.05268 8.75389 1 8.62671 1 8.49411H0C0 9.32411 0.672 9.99411 1.5 9.99411V8.99411ZM1 8.49411V4.49811H0V8.49611H1V8.49411ZM1 4.49711C1.00026 4.36467 1.05306 4.23775 1.1468 4.1442C1.24054 4.05065 1.36756 3.9981 1.5 3.99811V2.9981C1.10218 2.9981 0.720644 3.15614 0.43934 3.43744C0.158035 3.71875 0 4.10028 0 4.49811H1V4.49711ZM1.5 3.99811H3.5V2.9981H1.5V3.99811ZM3.757 3.9271L8.757 0.929105L8.243 0.0711049L3.243 3.0691L3.757 3.9271V3.9271ZM8 0.500105V12.4921H9V0.500105H8ZM8.757 12.0631L3.757 9.0651L3.243 9.92311L8.243 12.9211L8.757 12.0631V12.0631ZM13.5 3.49811C13.147 3.85211 13.146 3.8521 13.146 3.8511C13.1452 3.85054 13.1446 3.84986 13.144 3.8491L13.147 3.85211L13.167 3.8741C13.3175 4.05808 13.447 4.25833 13.553 4.47111C13.773 4.91011 14 5.5831 14 6.4961H15C15 5.4101 14.728 4.58511 14.447 4.02411C14.3363 3.79992 14.2058 3.58607 14.057 3.38511C14.0002 3.3099 13.9398 3.23749 13.876 3.16811L13.862 3.1531L13.857 3.1481L13.855 3.1461L13.854 3.1451L13.5 3.49811V3.49811ZM14 6.4961C14 7.4091 13.772 8.0821 13.553 8.5211C13.447 8.73389 13.3175 8.93414 13.167 9.1181C13.1605 9.12556 13.1538 9.13289 13.147 9.14011L13.144 9.1431L13.145 9.14211L13.146 9.1411L13.5 9.49411C13.853 9.84811 13.854 9.84811 13.854 9.84711H13.855L13.857 9.8441L13.862 9.8391L13.876 9.8251L13.919 9.77711C13.954 9.73711 14.001 9.68011 14.056 9.60711C14.166 9.46111 14.307 9.24711 14.447 8.96811C14.727 8.40811 15 7.5821 15 6.4961H14V6.4961Z" fill="white"/>
</svg>
