<svg width="15" height="13" viewBox="0 0 15 13" fill="none" xmlns="http://www.w3.org/2000/svg">
<path d="M3.5 9.49411L3.757 9.0651L3.638 8.9951H3.5V9.4951V9.49411ZM3.5 3.49811V3.99811H3.638L3.758 3.9271L3.5 3.49811ZM8.5 0.500105H9C9.00002 0.411639 8.97657 0.324752 8.93203 0.248312C8.8875 0.171871 8.82349 0.108614 8.74652 0.0649971C8.66956 0.0213798 8.58239 -0.00103624 8.49394 3.67908e-05C8.40548 0.00110982 8.31889 0.0256335 8.243 0.0711049L8.5 0.500105V0.500105ZM8.5 12.4921L8.243 12.9211C8.31889 12.9666 8.40548 12.9911 8.49394 12.9922C8.58239 12.9932 8.66956 12.9708 8.74652 12.9272C8.82349 12.8836 8.8875 12.8203 8.93203 12.7439C8.97657 12.6675 9.00002 12.5806 9 12.4921H8.5ZM11.44 4.7291L11.086 4.3761L10.379 5.08311L10.733 5.4371L11.439 4.7291H11.44ZM13.56 8.2631L13.914 8.61611L14.621 7.90911L14.267 7.5561L13.56 8.2631ZM14.268 5.4371L14.621 5.08311L13.914 4.3761L13.561 4.7291L14.268 5.4371ZM10.733 7.5561L10.379 7.90911L11.086 8.61611L11.44 8.2631L10.733 7.5561ZM3.5 8.99411H1.5V9.99411H3.5V8.99411ZM1.5 8.99411C1.4343 8.99424 1.36922 8.98139 1.3085 8.95631C1.24778 8.93123 1.19261 8.89441 1.14615 8.84795C1.0997 8.8015 1.06287 8.74632 1.03779 8.6856C1.01271 8.62488 0.999868 8.5598 1 8.49411H0C0 9.32411 0.671 9.99411 1.5 9.99411V8.99411ZM1 8.49411V4.49811H0V8.49611H1V8.49411ZM1 4.49711C1 4.22111 1.223 3.99811 1.5 3.99811V2.9981C0.671 2.9981 0 3.66811 0 4.49811H1V4.49711ZM1.5 3.99811H3.5V2.9981H1.5V3.99811ZM3.757 3.9271L8.757 0.929105L8.243 0.0711049L3.243 3.0691L3.757 3.9271V3.9271ZM8 0.500105V12.4921H9V0.500105H8ZM8.757 12.0631L3.757 9.0651L3.243 9.92311L8.243 12.9211L8.757 12.0631V12.0631ZM10.733 5.4371L13.56 8.2631L14.267 7.5561L11.439 4.7291L10.732 5.4371H10.733ZM13.561 4.7291L10.733 7.5561L11.44 8.2631L14.268 5.4371L13.561 4.7291V4.7291Z" fill="white"/>
</svg>
